<?xml version="1.0" encoding="UTF-8"?>
<svg width="12px" height="20px" viewBox="0 0 12 20" version="1.1" xmlns="http://www.w3.org/2000/svg" xmlns:xlink="http://www.w3.org/1999/xlink">
    <title>2C3DDB28-23F3-4A83-956F-C510E58B64A1</title>
    <g id="Manager" stroke="none" stroke-width="1" fill="none" fill-rule="evenodd">
        <g id="My-fleet-projects-" transform="translate(-31.000000, -78.000000)" fill="#EDEDED" fill-rule="nonzero">
            <g id="header-back" transform="translate(31.000000, 76.000000)">
                <g id="back" transform="translate(0.000000, 2.000000)">
                    <path d="M4.14033341,9.75412195 L11.3041489,2.45890244 C11.5014053,2.2585122 11.6099196,1.99058537 11.6099196,1.70490244 C11.6099196,1.41906098 11.5014053,1.15129268 11.3041489,0.950585366 L10.676416,0.311682927 C10.479471,0.110658537 10.216203,0 9.93565371,0 C9.65510441,0 9.39214782,0.110658537 9.19504715,0.311682927 L0.665383136,8.99726829 C0.467504023,9.19860976 0.359145358,9.46764634 0.359919626,9.75364634 C0.359145358,10.0409146 0.467348335,10.3096341 0.665383136,10.5111341 L9.18710707,19.1883171 C9.38420775,19.3893415 9.64716433,19.5 9.92786932,19.5 C10.2084186,19.5 10.4713752,19.3893415 10.6686316,19.1883171 L11.2962088,18.5494146 C11.7045778,18.1335732 11.7045778,17.456622 11.2962088,17.040939 L4.14033341,9.75412195 Z" id="Path"></path>
                </g>
            </g>
        </g>
    </g>
</svg>