<?xml version="1.0" encoding="UTF-8"?>
<svg width="20px" height="20px" viewBox="0 0 20 20" version="1.1" xmlns="http://www.w3.org/2000/svg" xmlns:xlink="http://www.w3.org/1999/xlink">
    <title>40F41919-9B73-4085-B7C9-9192F9FE30F7</title>
    <g id="Manager" stroke="none" stroke-width="1" fill="none" fill-rule="evenodd">
        <g id="My-fleet-projects-" transform="translate(-210.000000, -480.000000)" fill="#0EE881" fill-rule="nonzero">
            <g id="Statics" transform="translate(29.000000, 417.000000)">
                <g id="checked" transform="translate(181.000000, 63.000000)">
                    <path d="M19.7833267,2.87979712 C19.4937056,2.59606881 19.0237828,2.59557994 18.7341617,2.87859376 L9.83277438,11.5608681 L6.62117976,8.14962274 C6.3436711,7.85502663 5.87447882,7.83592339 5.57274535,8.10727972 C5.27124259,8.37867365 5.25193965,8.8377532 5.52944831,9.13261254 L9.26414502,13.0992058 C9.40091907,13.244586 9.59233352,13.3290088 9.79416849,13.3331077 C9.79959023,13.3333333 9.80481972,13.3333333 9.81001075,13.3333333 C10.0061548,13.3333333 10.1948392,13.257146 10.3338434,13.1216934 L19.7818655,3.90607006 C20.0722172,3.62309384 20.0727171,3.16352543 19.7833267,2.87979712 Z" id="Path"></path>
                    <path d="M19.2462109,9.24621094 C18.8298828,9.24621094 18.4924609,9.58363281 18.4924609,10 C18.4924609,14.6829297 14.6829297,18.4924609 10,18.4924609 C5.31734375,18.4924609 1.50753906,14.6829297 1.50753906,10 C1.50753906,5.31734375 5.31734375,1.50753906 10,1.50753906 C10.4163281,1.50753906 10.7537891,1.17011719 10.7537891,0.753789062 C10.7537891,0.337421875 10.4163281,0 10,0 C4.4859375,0 0,4.4859375 0,10 C0,15.5138281 4.4859375,20 10,20 C15.5138281,20 20,15.5138281 20,10 C20,9.58367188 19.6625781,9.24621094 19.2462109,9.24621094 Z" id="Path"></path>
                </g>
            </g>
        </g>
    </g>
</svg>