<?xml version="1.0" encoding="UTF-8"?>
<svg width="22px" height="23px" viewBox="0 0 22 23" version="1.1" xmlns="http://www.w3.org/2000/svg" xmlns:xlink="http://www.w3.org/1999/xlink">
    <title>BCD5BE1B-D202-406B-961E-7EF2CDC6F035</title>
    <g id="Manager" stroke="none" stroke-width="1" fill="none" fill-rule="evenodd">
        <g id="My-fleet-projects-" transform="translate(-211.000000, -550.000000)" fill="#FF5252" fill-rule="nonzero">
            <g id="Statics" transform="translate(29.000000, 417.000000)">
                <g id="Group" transform="translate(182.000000, 133.000000)">
                    <path d="M10.6551725,0.746219784 C4.77949179,0.746219784 0,5.52571918 0,11.4013923 C0,17.2770654 4.7794994,22.0565648 10.6551725,22.0565648 C16.5308456,22.0565648 21.310345,17.2770654 21.310345,11.4013923 C21.310345,5.52571918 16.5308532,0.746219784 10.6551725,0.746219784 Z M10.6551725,2.26838728 C15.708213,2.26838728 19.7881775,6.34835939 19.7881775,11.4013923 C19.7881775,16.4544252 15.7082054,20.5343973 10.6551725,20.5343973 C5.6021396,20.5343973 1.5221675,16.4544252 1.5221675,11.4013923 C1.5221675,6.34835939 5.60213199,2.26838728 10.6551725,2.26838728 Z" id="Shape"></path>
                    <path d="M10.6432844,5.30222537 C10.2235335,5.30887755 9.88834136,5.65404323 9.89408875,6.07380603 L9.89408875,11.4013923 C9.8941281,11.6032307 9.97433254,11.7967896 10.1170635,11.9395013 L13.8838344,15.7062722 C14.0747217,15.9051207 14.3581985,15.9852304 14.624928,15.9157032 C14.8916576,15.846176 15.0999562,15.6378774 15.1694834,15.3711478 C15.2390106,15.1044183 15.1589009,14.8209415 14.9600525,14.6300542 L11.4162562,11.0862579 L11.4162562,6.07380603 C11.4190729,5.86808578 11.3384911,5.66998708 11.1928716,5.52464712 C11.047252,5.37930716 10.8489988,5.29910623 10.6432844,5.30222537 L10.6432844,5.30222537 Z" id="Path"></path>
                </g>
            </g>
        </g>
    </g>
</svg>