<?xml version="1.0" encoding="UTF-8"?>
<svg width="18px" height="28px" viewBox="0 0 18 28" version="1.1" xmlns="http://www.w3.org/2000/svg" xmlns:xlink="http://www.w3.org/1999/xlink">
    <title>FEC933AA-E480-4121-A1F9-1F4C0DC63C9D</title>
    <defs>
        <linearGradient x1="50%" y1="0%" x2="50%" y2="100%" id="linearGradient-1">
            <stop stop-color="#FFD200" offset="0%"></stop>
            <stop stop-color="#FFBE00" offset="100%"></stop>
        </linearGradient>
    </defs>
    <g id="Manager" stroke="none" stroke-width="1" fill="none" fill-rule="evenodd">
        <g id="My-fleet-projects-" transform="translate(-51.000000, -545.000000)" fill="url(#linearGradient-1)" fill-rule="nonzero">
            <g id="Statics" transform="translate(29.000000, 417.000000)">
                <g id="flash" transform="translate(22.734375, 128.000000)">
                    <path d="M16.2143897,9.41716071 C16.1204168,9.23432143 15.979485,9.142875 15.7915942,9.142875 L10.2482931,9.142875 L15.7446352,0.685714286 C15.8386082,0.548571429 15.8386082,0.365732143 15.7446352,0.228589286 C15.6506623,0.0914464286 15.5097305,0 15.3218397,0 L7.80549272,0 C7.61760194,0 7.47667009,0.0914464286 7.38269717,0.228589286 L0.336104688,13.942875 C0.242131771,14.0800179 0.242131771,14.2628571 0.336104688,14.4 C0.430077605,14.5371429 0.617968387,14.6285893 0.758900237,14.6285893 L5.59754206,14.6285893 L0.336104688,26.8343036 C0.242131771,27.0171429 0.336104688,27.2457321 0.52399547,27.382875 C0.570954403,27.4285714 0.66492732,27.4285714 0.758900237,27.4285714 C0.899832087,27.4285714 1.04076394,27.382875 1.13473685,27.2914286 L16.1674858,9.91998214 C16.2614037,9.78283929 16.3083626,9.6 16.2143897,9.41716071 Z M2.40306845,24.3657321 L6.72499686,14.3086071 C6.77195579,14.1714643 6.77195579,14.0343214 6.67803793,13.8971786 C6.58406501,13.8057321 6.44313316,13.7143393 6.30220131,13.7143393 L1.51051842,13.7143393 L8.08735642,0.914303571 L14.4762486,0.914303571 L8.93294752,9.37141071 C8.8389746,9.50855357 8.8389746,9.69139286 8.93294752,9.82853571 C9.02692044,9.96567857 9.16785229,10.057125 9.35574307,10.057125 L14.8051263,10.057125 L2.40306845,24.3657321 Z" id="Shape"></path>
                </g>
            </g>
        </g>
    </g>
</svg>