<?xml version="1.0" encoding="UTF-8"?>
<svg width="44px" height="44px" viewBox="0 0 44 44" version="1.1" xmlns="http://www.w3.org/2000/svg" xmlns:xlink="http://www.w3.org/1999/xlink">
    <title>E648271B-229C-4158-BCED-F2C3F78F91C3</title>
    <defs>
        <filter x="-80.0%" y="-80.0%" width="260.0%" height="260.0%" filterUnits="objectBoundingBox" id="filter-1">
            <feOffset dx="0" dy="2" in="SourceAlpha" result="shadowOffsetOuter1"></feOffset>
            <feGaussianBlur stdDeviation="3" in="shadowOffsetOuter1" result="shadowBlurOuter1"></feGaussianBlur>
            <feColorMatrix values="0 0 0 0 0   0 0 0 0 0   0 0 0 0 0  0 0 0 1 0" type="matrix" in="shadowBlurOuter1" result="shadowMatrixOuter1"></feColorMatrix>
            <feMerge>
                <feMergeNode in="shadowMatrixOuter1"></feMergeNode>
                <feMergeNode in="SourceGraphic"></feMergeNode>
            </feMerge>
        </filter>
    </defs>
    <g id="Manager" stroke="none" stroke-width="1" fill="none" fill-rule="evenodd">
        <g id="My-fleet-projects-" transform="translate(-35.000000, -468.000000)" fill="#0364FF" fill-rule="nonzero">
            <g id="Statics" transform="translate(29.000000, 417.000000)">
                <g id="menu" filter="url(#filter-1)" transform="translate(18.000000, 63.000000)">
                    <path d="M16.8926554,0 L13.940678,0 C12.2272881,0 10.8333333,1.3939548 10.8333333,3.10734463 L10.8333333,6.05932203 C10.8333333,7.77271186 12.2272881,9.16666667 13.940678,9.16666667 L16.8926554,9.16666667 C18.6060452,9.16666667 20,7.77271186 20,6.05932203 L20,3.10734463 C20,1.3939548 18.6060452,0 16.8926554,0 Z M18.3333333,6.0042735 C18.3333333,6.82901709 17.6623504,7.5 16.8376068,7.5 L13.9957265,7.5 C13.1709829,7.5 12.5,6.82901709 12.5,6.0042735 L12.5,3.16239316 C12.5,2.33764957 13.1709829,1.66666667 13.9957265,1.66666667 L16.8376068,1.66666667 C17.6623504,1.66666667 18.3333333,2.33764957 18.3333333,3.16239316 L18.3333333,6.0042735 Z" id="Shape"></path>
                    <path d="M6.05932203,0 L3.10734463,0 C1.3939548,0 0,1.3939548 0,3.10734463 L0,6.05932203 C0,7.77271186 1.3939548,9.16666667 3.10734463,9.16666667 L6.05932203,9.16666667 C7.77271186,9.16666667 9.16666667,7.77271186 9.16666667,6.05932203 L9.16666667,3.10734463 C9.16666667,1.3939548 7.77271186,0 6.05932203,0 Z M7.5,6.0042735 C7.5,6.82901709 6.82901709,7.5 6.0042735,7.5 L3.16239316,7.5 C2.33764957,7.5 1.66666667,6.82901709 1.66666667,6.0042735 L1.66666667,3.16239316 C1.66666667,2.33764957 2.33764957,1.66666667 3.16239316,1.66666667 L6.0042735,1.66666667 C6.82901709,1.66666667 7.5,2.33764957 7.5,3.16239316 L7.5,6.0042735 Z" id="Shape"></path>
                    <path d="M6.05932203,10.8333333 L3.10734463,10.8333333 C1.3939548,10.8333333 0,12.2272881 0,13.940678 L0,16.8926554 C0,18.6060452 1.3939548,20 3.10734463,20 L6.05932203,20 C7.77271186,20 9.16666667,18.6060452 9.16666667,16.8926554 L9.16666667,13.940678 C9.16666667,12.2272881 7.77271186,10.8333333 6.05932203,10.8333333 Z M7.5,16.8376068 C7.5,17.6623504 6.82901709,18.3333333 6.0042735,18.3333333 L3.16239316,18.3333333 C2.33764957,18.3333333 1.66666667,17.6623504 1.66666667,16.8376068 L1.66666667,13.9957265 C1.66666667,13.1709829 2.33764957,12.5 3.16239316,12.5 L6.0042735,12.5 C6.82901709,12.5 7.5,13.1709829 7.5,13.9957265 L7.5,16.8376068 Z" id="Shape"></path>
                    <path d="M19.2231638,16.1158192 C18.7941172,16.1158192 18.4463277,16.4636088 18.4463277,16.8926554 C18.4463277,17.7493503 17.7493503,18.4463277 16.8926554,18.4463277 L13.940678,18.4463277 C13.0839831,18.4463277 12.3870056,17.7493503 12.3870056,16.8926554 L12.3870056,13.940678 C12.3870056,13.0839831 13.0839831,12.3870056 13.940678,12.3870056 L16.8926554,12.3870056 C17.5104343,12.3870056 18.069601,12.7528566 18.3171787,13.3190537 C18.4890537,13.7121716 18.9471151,13.8914266 19.3401942,13.7195904 C19.7333121,13.5476766 19.9126059,13.089654 19.7407309,12.6965749 C19.2457698,11.5646857 18.1278249,10.8333333 16.8926554,10.8333333 L13.940678,10.8333333 C12.2272881,10.8333333 10.8333333,12.2272881 10.8333333,13.940678 L10.8333333,16.8926554 C10.8333333,18.6060452 12.2272881,20 13.940678,20 L16.8926554,20 C18.6060452,20 20,18.6060452 20,16.8926554 C20,16.4636088 19.6522105,16.1158192 19.2231638,16.1158192 Z" id="Path"></path>
                </g>
            </g>
        </g>
    </g>
</svg>