<?xml version="1.0" encoding="UTF-8"?>
<svg width="22px" height="24px" viewBox="0 0 22 24" version="1.1" xmlns="http://www.w3.org/2000/svg" xmlns:xlink="http://www.w3.org/1999/xlink">
    <title>F8225DED-EB11-4AFC-9256-204193DBCCA8</title>
    <defs>
        <linearGradient x1="50%" y1="0%" x2="50%" y2="100%" id="linearGradient-1">
            <stop stop-color="#FFD200" offset="0%"></stop>
            <stop stop-color="#FFBE00" offset="100%"></stop>
        </linearGradient>
    </defs>
    <g id="Manager" stroke="none" stroke-width="1" fill="none" fill-rule="evenodd">
        <g id="My-fleet-projects-" transform="translate(-322.000000, -76.000000)" fill="url(#linearGradient-1)" fill-rule="nonzero">
            <g id="header-back" transform="translate(31.000000, 76.000000)">
                <g id="noun_notification_3350881" transform="translate(291.000000, 0.000000)">
                    <path d="M21,19 L20,19 L20,11 C19.9978251,6.41803969 16.5535893,2.56910624 12,2.06 L12,1 C12,0.44771525 11.5522847,0 11,0 C10.4477153,0 10,0.44771525 10,1 L10,2.06 C5.44641066,2.56910624 2.00217492,6.41803969 2,11 L2,19 L1,19 C0.44771525,19 0,19.4477153 0,20 C0,20.5522847 0.44771525,21 1,21 L7.14,21 C7.61339782,22.7419603 9.19485974,23.9510005 11,23.9510005 C12.8051403,23.9510005 14.3866022,22.7419603 14.86,21 L21,21 C21.5522847,21 22,20.5522847 22,20 C22,19.4477153 21.5522847,19 21,19 Z M11,22 C10.2897779,21.9957131 9.63510459,21.6150891 9.28,21 L12.72,21 C12.3648954,21.6150891 11.7102221,21.9957131 11,22 Z M4,19.0000001 L4,11.0000001 C4,7.13400679 7.13400679,4.0000001 11,4.0000001 C14.8659932,4.0000001 18,7.13400679 18,11.0000001 L18,19.0000001 L4,19.0000001 Z" id="Shape"></path>
                </g>
            </g>
        </g>
    </g>
</svg>